<svg xmlns="http://www.w3.org/2000/svg" viewBox="0 0 1000 750" width="1000" height="750" role="presentation">
  <defs>
    <linearGradient id="wash" x1="0" y1="0" x2="0.6" y2="1">
      <stop offset="0%" stop-color="#f7f4ef" stop-opacity="0.85"/>
      <stop offset="100%" stop-color="#efe9e0" stop-opacity="0"/>
    </linearGradient>
    <clipPath id="frame"><rect width="1000" height="750"/></clipPath>
  </defs>
  <g clip-path="url(#frame)">
    <rect width="1000" height="750" fill="#efe9e0"/>
    <path d="M244.78289899688997 750 L244.78289899688997 518.6399909612117 A292.15082000292625 292.15082000292625 0 0 1 829.0845390027425 518.6399909612117 L829.0845390027425 750 Z" fill="#e2d8ca" opacity="0.75"/>
    <path d="M639.9579474865706 750 L639.9579474865706 370.4914777092616 A290.5774385879229 290.5774385879229 0 0 1 1221.1128246624164 370.4914777092616 L1221.1128246624164 750 Z" fill="#f7f4ef" opacity="0.72"/>
    <path d="M-75.98613976040254 750 L-75.98613976040254 485.0977808569087 A282.30890003086745 282.30890003086745 0 0 1 488.6316603013324 485.0977808569087 L488.6316603013324 750 Z" fill="#e2d8ca" opacity="0.84"/>
    <g stroke="#241f1d" stroke-width="0.75" opacity="0.1" fill="none">
      <path d="M0 53.6 H1000"/>
      <path d="M0 107.1 H1000"/>
      <path d="M0 160.7 H1000"/>
      <path d="M0 214.3 H1000"/>
      <path d="M0 267.9 H1000"/>
      <path d="M0 321.4 H1000"/>
      <path d="M0 375.0 H1000"/>
      <path d="M0 428.6 H1000"/>
      <path d="M0 482.1 H1000"/>
      <path d="M0 535.7 H1000"/>
      <path d="M0 589.3 H1000"/>
      <path d="M0 642.9 H1000"/>
      <path d="M0 696.4 H1000"/>
      <path d="M0 750.0 H1000"/>
    </g>
    <path d="M453.6079921139423 323.9084362486397 A161.77505197277645 161.77505197277645 0 0 1 777.1580960594952 323.9084362486397" fill="none" stroke="#ad1f2b" stroke-width="21.0" stroke-linecap="round"/>
    <circle cx="498.9" cy="477.6" r="27.5" fill="#7d1119" opacity="0.85"/>
    <rect width="1000" height="750" fill="url(#wash)"/>
    
  </g>
</svg>