<svg xmlns="http://www.w3.org/2000/svg" viewBox="0 0 800 600" width="800" height="600" role="presentation">
  <defs>
    <linearGradient id="wash" x1="0" y1="0" x2="0.6" y2="1">
      <stop offset="0%" stop-color="#f7f4ef" stop-opacity="0.85"/>
      <stop offset="100%" stop-color="#efe9e0" stop-opacity="0"/>
    </linearGradient>
    <clipPath id="frame"><rect width="800" height="600"/></clipPath>
  </defs>
  <g clip-path="url(#frame)">
    <rect width="800" height="600" fill="#efe9e0"/>
    <path d="M295.6276047866288 600 L295.6276047866288 249.37918418538266 A167.12741862217138 167.12741862217138 0 0 1 629.8824420309716 249.37918418538266 L629.8824420309716 600 Z" fill="#e2d8ca" opacity="0.73"/>
    <path d="M348.105336911818 600 L348.105336911818 378.51016757928534 A213.22587582776924 213.22587582776924 0 0 1 774.5570885673565 378.51016757928534 L774.5570885673565 600 Z" fill="#f7f4ef" opacity="0.72"/>
    <path d="M321.4771821503477 600 L321.4771821503477 333.236082237036 A201.86928600861444 201.86928600861444 0 0 1 725.2157541675765 333.236082237036 L725.2157541675765 600 Z" fill="#e2d8ca" opacity="0.50"/>
    <g stroke="#241f1d" stroke-width="0.75" opacity="0.1" fill="none">
      <path d="M0 42.9 H800"/>
      <path d="M0 85.7 H800"/>
      <path d="M0 128.6 H800"/>
      <path d="M0 171.4 H800"/>
      <path d="M0 214.3 H800"/>
      <path d="M0 257.1 H800"/>
      <path d="M0 300.0 H800"/>
      <path d="M0 342.9 H800"/>
      <path d="M0 385.7 H800"/>
      <path d="M0 428.6 H800"/>
      <path d="M0 471.4 H800"/>
      <path d="M0 514.3 H800"/>
      <path d="M0 557.1 H800"/>
      <path d="M0 600.0 H800"/>
    </g>
    <path d="M390.6347479668061 214.469251147115 A112.19861153145288 112.19861153145288 0 0 1 615.0319710297119 214.469251147115" fill="none" stroke="#ad1f2b" stroke-width="14.6" stroke-linecap="round"/>
    <circle cx="422.1" cy="321.1" r="19.1" fill="#7d1119" opacity="0.85"/>
    <rect width="800" height="600" fill="url(#wash)"/>
    <text x="64" y="528" font-family="Georgia, 'Times New Roman', serif" font-size="156" fill="#ad1f2b" opacity="0.28">JA</text>
  </g>
</svg>